<svg id="icon-aside-about-sys" viewBox="0 0 32 32" xmlns="http://www.w3.org/2000/svg"><g class="nc-icon-wrapper"><path d="M31.854 12.105a.532.532 0 0 1-.754 0l-9.072-9.07a.532.532 0 0 1 0-.754L24.163.147a.533.533 0 1 1 .755.754l-1.757 1.757 8.695 8.693a.532.532 0 0 1 0 .754zm-4.647-8.38c-.588 0-1.067-.479-1.067-1.067s.479-1.067 1.067-1.067 1.067.479 1.067 1.067c0 .589-.479 1.067-1.067 1.067zm-5.165 1.552l-1.509 1.509c-.911.911-1.871.911-2.642.911-.72 0-1.288 0-1.887.598l-6.415 6.414.377.377c.605.604 1.66.604 2.264 0l3.019-3.018a.535.535 0 0 1 .755 0 4.772 4.772 0 0 0 3.395 1.406h.002a4.784 4.784 0 0 0 3.401-1.411.533.533 0 1 1 .755.754 5.844 5.844 0 0 1-4.155 1.724h-.003a5.827 5.827 0 0 1-3.755-1.358l-2.658 2.658c-.504.504-1.174.781-1.887.781s-1.382-.277-1.886-.781l-.377-.377c-.202-.201-.313-.469-.313-.754s.111-.553.314-.755l6.415-6.413c.911-.911 1.87-.911 2.641-.911.72 0 1.288 0 1.887-.598l1.509-1.509a.533.533 0 1 1 .755.754zM11.853 9.206a.532.532 0 0 1-.377-.156L9.967 7.541a.534.534 0 0 1 .755-.754l1.509 1.509a.532.532 0 0 1-.377.91zM.901 14.239a.532.532 0 1 1-.754-.754l8.695-8.693-2.825-2.824a.534.534 0 0 1 .755-.754l3.202 3.201a.533.533 0 0 1 0 .755L.902 14.24zm3.892-8.38a1.068 1.068 0 0 1 0-2.134 1.068 1.068 0 0 1 0 2.134zm-.69 7.626c.819.819 1.029 2.041 1.253 3.336.265 1.539.566 3.283 1.949 4.667l9.077 9.067a1.068 1.068 0 0 0 1.822-.753c0-.284-.111-.553-.313-.755l-4.905-4.904a.534.534 0 0 1 .755-.754l5.661 5.658a1.09 1.09 0 0 0 1.509 0 1.068 1.068 0 0 0 0-1.509l-6.037-6.036a.534.534 0 0 1 .755-.754l6.792 6.791a1.067 1.067 0 0 0 1.51-1.509l-7.17-7.168a.534.534 0 0 1 .755-.754l5.66 5.659a1.068 1.068 0 0 0 1.51-1.509l-5.66-5.659a.533.533 0 1 1 .755-.755l5.661 5.659a2.137 2.137 0 0 1-.957 3.57l.202.203a2.135 2.135 0 0 1-2.434 3.433 2.122 2.122 0 0 1-.585 1.094 2.18 2.18 0 0 1-2.433.416 2.128 2.128 0 0 1-2.094 1.718 2.132 2.132 0 0 1-1.509-.624l-9.077-9.067c-1.623-1.623-1.969-3.629-2.247-5.24-.202-1.172-.376-2.184-.955-2.763a.534.534 0 0 1 .755-.754zm.507 8.331c.242.168.304.5.136.742-.151.219-.153.738.315 1.206.441.44.952.46 1.242.292a.534.534 0 0 1 .645.84l-.377.377c-.416.416-.416 1.093 0 1.509s1.093.416 1.509 0l.377-.377a.535.535 0 0 1 .755.754 1.068 1.068 0 0 0 1.51 1.509.533.533 0 1 1 .827.666c-.148.232-.152.764.305 1.221.457.456.965.438 1.262.282a.533.533 0 0 1 .495.945 1.982 1.982 0 0 1-.916.218c-.526 0-1.103-.197-1.596-.69a2.342 2.342 0 0 1-.685-1.309 2.138 2.138 0 0 1-1.957-.577 2.122 2.122 0 0 1-.616-1.325 2.137 2.137 0 0 1-2.65-2.071c0-.306.064-.602.186-.873a2.378 2.378 0 0 1-1.069-.636c-.859-.859-.871-1.942-.439-2.567a.533.533 0 0 1 .742-.136zm20.829-2.046a.535.535 0 0 1-.378-.91l.755-.754c.642-.642.907-1.897 1.162-3.109.288-1.366.585-2.778 1.453-3.645a.533.533 0 1 1 .755.754c-.643.643-.907 1.897-1.163 3.111-.288 1.365-.585 2.777-1.452 3.644l-.755.754a.53.53 0 0 1-.377.156z"/></g></svg>