<svg id="icon-aside-setup" viewBox="0 0 32 32" xmlns="http://www.w3.org/2000/svg"><g class="nc-icon-wrapper"><path d="M30.362 12.641l-2.246-.381a12.74 12.74 0 0 0-.902-2.179l1.324-1.852a1.97 1.97 0 0 0-.214-2.547L26.332 3.69a1.963 1.963 0 0 0-2.54-.214L21.934 4.8a12.555 12.555 0 0 0-2.259-.929l-.374-2.219A1.974 1.974 0 0 0 17.349.001h-2.814c-.969 0-1.792.695-1.952 1.651l-.388 2.273c-.749.234-1.477.541-2.173.916L8.184 3.517a1.96 1.96 0 0 0-1.15-.368c-.528 0-1.029.207-1.397.582L3.638 5.723a1.98 1.98 0 0 0-.214 2.547l1.337 1.878a12.356 12.356 0 0 0-.889 2.186l-2.219.374A1.974 1.974 0 0 0 .002 14.66v2.814c0 .969.695 1.792 1.651 1.952l2.273.388c.234.749.541 1.477.916 2.173l-1.317 1.832a1.97 1.97 0 0 0 .214 2.547l1.992 1.992a1.963 1.963 0 0 0 2.54.214l1.878-1.337a12.66 12.66 0 0 0 2.112.869l.374 2.246c.16.956.983 1.651 1.952 1.651h2.821c.969 0 1.792-.695 1.952-1.651l.381-2.246a12.74 12.74 0 0 0 2.179-.902l1.852 1.324a1.96 1.96 0 0 0 1.15.368 1.96 1.96 0 0 0 1.397-.582l1.992-1.992a1.98 1.98 0 0 0 .214-2.547l-1.324-1.858c.368-.702.675-1.431.902-2.179l2.246-.374A1.974 1.974 0 0 0 32 17.41v-2.814a1.951 1.951 0 0 0-1.638-1.952zm-.154 4.766c0 .087-.06.16-.147.174l-2.808.468a.898.898 0 0 0-.722.662 10.714 10.714 0 0 1-1.163 2.801.906.906 0 0 0 .04.983l1.651 2.326a.182.182 0 0 1-.02.227l-1.992 1.992a.169.169 0 0 1-.127.053.162.162 0 0 1-.1-.033l-2.32-1.651a.903.903 0 0 0-.983-.04c-.876.521-1.818.909-2.801 1.163a.887.887 0 0 0-.662.722l-.475 2.808a.173.173 0 0 1-.174.147h-2.814a.174.174 0 0 1-.174-.147l-.468-2.808a.898.898 0 0 0-.662-.722 11.097 11.097 0 0 1-2.741-1.123.927.927 0 0 0-.455-.12.874.874 0 0 0-.521.167l-2.34 1.665a.198.198 0 0 1-.1.033.182.182 0 0 1-.127-.053l-1.992-1.992a.18.18 0 0 1-.02-.227l1.644-2.306a.914.914 0 0 0 .04-.989 10.622 10.622 0 0 1-1.177-2.794.915.915 0 0 0-.722-.662l-2.828-.481a.173.173 0 0 1-.147-.174v-2.814c0-.087.06-.16.147-.174l2.788-.468a.905.905 0 0 0 .729-.668c.247-.983.628-1.932 1.143-2.808a.892.892 0 0 0-.047-.976l-1.665-2.34a.182.182 0 0 1 .02-.227l1.992-1.992a.169.169 0 0 1 .127-.053c.04 0 .074.013.1.033l2.306 1.644a.914.914 0 0 0 .989.04 10.622 10.622 0 0 1 2.794-1.177.915.915 0 0 0 .662-.722l.481-2.828a.173.173 0 0 1 .174-.147h2.814c.087 0 .16.06.174.147l.468 2.788c.06.354.321.642.668.729a10.83 10.83 0 0 1 2.868 1.177.904.904 0 0 0 .983-.04l2.306-1.658a.198.198 0 0 1 .1-.033c.027 0 .08.007.127.053l1.992 1.992a.18.18 0 0 1 .02.227l-1.651 2.32a.903.903 0 0 0-.04.983c.521.876.909 1.818 1.163 2.801a.887.887 0 0 0 .722.662l2.808.475a.173.173 0 0 1 .147.174l-.007 2.814z"/><path d="M22.935 21.117l-3.028 2.647-.996-1.136 1.511-1.324h-4.419a5.31 5.31 0 0 1-5.301-5.301h1.517a3.789 3.789 0 0 0 3.784 3.784h4.419l-1.511-1.324.996-1.136 3.028 2.647a.758.758 0 0 1 0 1.143z"/><path d="M16.003 12.213h-4.419l1.511 1.324-.996 1.136-3.028-2.647a.747.747 0 0 1 0-1.136l3.028-2.647.996 1.136-1.517 1.317h4.419a5.31 5.31 0 0 1 5.301 5.301h-1.511a3.789 3.789 0 0 0-3.784-3.784z"/></g></svg>