<svg id="icon-business-analize" viewBox="0 0 31 32" xmlns="http://www.w3.org/2000/svg"><g class="nc-icon-wrapper"><path d="M27.199 6.79C25.261 19.044 11.86 25.638.228 21.625c-.404-.139-.237-.688.174-.624 9.347 1.458 17.56-5.398 19.007-14.211h-4.298l7.855-6.791 7.855 6.791h-3.622zM4.017 32.002H-.004v-9.404c1.311.446 2.655.764 4.021.961v8.443zm6.031-8.374v8.373h-4.02v-8.243c.408.022.817.037 1.228.037.947 0 1.878-.058 2.793-.168zm6.031 8.374h-4.021v-8.709a22.16 22.16 0 0 0 4.021-1.263v9.972zm6.031 0h-4.021V21.054a20.846 20.846 0 0 0 4.021-2.878v13.825zm6.031-24.215v24.215h-4.02V16.037a19.123 19.123 0 0 0 3.919-8.25h.101z"/></g></svg>