<svg id="icon-aside-control-employees" viewBox="0 0 29 32" xmlns="http://www.w3.org/2000/svg"><g class="nc-icon-wrapper"><path d="M28.807 5.395l-3.209 18.706a.502.502 0 0 1-.207.326l-10.697 7.482a.504.504 0 0 1-.576 0L3.421 24.427a.502.502 0 0 1-.207-.326L.005 5.395a.5.5 0 0 1 .33-.558L14.241.027a.498.498 0 0 1 .328 0l13.906 4.81a.5.5 0 0 1 .33.558zm-14.4-4.364L1.067 5.645l3.102 18.081 10.238 7.161 10.238-7.161 3.102-18.081-13.34-4.614zm9.149 22.234l-8.862 6.198a.504.504 0 0 1-.576 0l-8.861-6.198a.502.502 0 0 1-.207-.326L2.27 6.733a.5.5 0 0 1 .33-.558l11.642-4.027a.498.498 0 0 1 .328 0l11.642 4.027a.5.5 0 0 1 .33.558l-2.78 16.206a.502.502 0 0 1-.207.326zM14.407 3.152L3.331 6.983l2.673 15.581 8.403 5.877 8.403-5.877 2.673-15.581-11.076-3.831zm7.361 17.09a.502.502 0 0 1-.495-.586l.779-4.543a.501.501 0 1 1 .989.17l-.779 4.543a.501.501 0 0 1-.494.416zm1.018-9.404l.432-2.517-2.824-.977a.501.501 0 1 1 .328-.947l3.226 1.116a.5.5 0 0 1 .33.558l-.504 2.936a.501.501 0 0 1-.989-.17zM19.22 22.38H9.593a.5.5 0 0 1-.501-.501v-2.672a5.32 5.32 0 0 1 4.409-5.232 3.447 3.447 0 0 1-2.537-3.319c0-1.897 1.545-3.441 3.443-3.441s3.443 1.543 3.443 3.441a3.447 3.447 0 0 1-2.537 3.319 5.319 5.319 0 0 1 4.409 5.232v2.672a.5.5 0 0 1-.501.501zm-2.373-11.725c0-1.345-1.095-2.438-2.44-2.438s-2.44 1.094-2.44 2.438c0 1.345 1.095 2.438 2.44 2.438s2.44-1.094 2.44-2.438zm1.872 8.551c0-2.376-1.934-4.309-4.312-4.309s-4.312 1.933-4.312 4.309v2.171h8.625v-2.171zm.501-12.298a.496.496 0 0 1-.164-.028l-2.14-.74a.5.5 0 1 1 .328-.947l2.14.74a.5.5 0 0 1-.164.974z"/></g></svg>