<svg id="icon-page-quality-svg" viewBox="0 0 32 32" xmlns="http://www.w3.org/2000/svg"><g class="nc-icon-wrapper"><path d="M30.08 1.92H1.92C.86 1.92 0 2.78 0 3.84v24.32c0 1.06.86 1.92 1.92 1.92h28.16A1.92 1.92 0 0 0 32 28.16V3.84a1.92 1.92 0 0 0-1.92-1.92zm-4.8 1.28a1.281 1.281 0 0 1 0 2.56 1.281 1.281 0 0 1 0-2.56zm-3.52 0a1.281 1.281 0 0 1 0 2.56 1.281 1.281 0 0 1 0-2.56zm8.32 24.96H1.92V7.04h28.16v21.12zM28.8 5.76a1.281 1.281 0 0 1 0-2.56 1.281 1.281 0 0 1 0 2.56z"/><path d="M16.136 9.934c.145-.052.303.03.387.15.213.287.422.577.632.866a.744.744 0 0 0 .803.269c.361-.117.721-.24 1.084-.349a.335.335 0 0 1 .418.302c.008.374.009.748.007 1.122a.737.737 0 0 0 .47.687c.368.121.74.234 1.105.365.193.068.273.32.16.49-.213.315-.446.617-.668.927a.743.743 0 0 0-.021.798c.224.317.46.626.681.944.117.167.054.422-.139.501-.363.131-.734.24-1.1.366a.737.737 0 0 0-.484.606c-.006.398-.003.795-.009 1.192a.338.338 0 0 1-.418.322c-.364-.104-.721-.233-1.083-.344a.728.728 0 0 0-.794.253c-.227.304-.445.616-.674.918a.334.334 0 0 1-.52.002c-.231-.303-.449-.614-.676-.919a.731.731 0 0 0-.811-.247c-.347.111-.691.227-1.039.333a.341.341 0 0 1-.446-.316c-.004-.366-.003-.732-.002-1.098a.743.743 0 0 0-.487-.7c-.359-.121-.722-.233-1.08-.357-.197-.063-.283-.321-.167-.492.21-.317.445-.617.665-.927a.735.735 0 0 0 .003-.832c-.222-.31-.45-.616-.668-.929a.336.336 0 0 1 .163-.492c.357-.13.721-.24 1.083-.356a.747.747 0 0 0 .483-.601c.014-.407-.005-.814.011-1.221a.334.334 0 0 1 .42-.294c.364.108.723.233 1.086.346a.74.74 0 0 0 .812-.288c.191-.268.386-.531.578-.798.059-.085.131-.17.233-.2z"/><path d="M20.495 19.252c1.175 1.216 2.336 2.445 3.505 3.667-.999.005-1.998-.002-2.998.003-.004.999.001 1.998-.002 2.998-1.363-1.461-2.727-2.92-4.089-4.382.272-.214.463-.505.657-.786.231.052.449.152.68.203.45.102.937.033 1.336-.2.535-.306.867-.895.91-1.503z"/><path d="M8 22.919c1.04-1.087 2.066-2.187 3.116-3.262.2.764.933 1.348 1.727 1.343.391.019.752-.147 1.12-.25.26.369.527.756.937.974l-3.901 4.195c-.004-.999.002-1.998-.003-2.997-.999-.006-1.998.001-2.997-.003z"/></g></svg>