<svg id="icon-businessman-resources-graphic-svgrepo-com" viewBox="0 0 32 32" xmlns="http://www.w3.org/2000/svg"><g class="nc-icon-wrapper"><path d="M26.783 11.281a2.33 2.33 0 1 0-.001-4.66 2.33 2.33 0 0 0 .001 4.66z"/><path d="M28.331 11.848c-.038-.024-.08-.041-.12-.058a2.683 2.683 0 0 0-.849-.374l-.579.584-.563-.591-.006.001a2.698 2.698 0 0 0-.852.37c-.046.019-.092.04-.137.067-1.809 1.109-2.847 1.987-3.168 7.12a.905.905 0 0 0 .846.959l.058.002a.906.906 0 0 0 .903-.848c.109-1.733.283-2.856.536-3.631v3.133c0 .244.047.471.13.679-.006.048-.012.095-.012.144l.002 8.661a1.068 1.068 0 1 0 2.137 0v-7.433c.042.002.085.005.128.005l.024-.001v7.429a1.068 1.068 0 1 0 2.138 0l.001-8.607c.14-.26.222-.554.222-.876v-3.107c.247.774.42 1.891.527 3.605.03.479.429.848.902.848.018 0 .038 0 .057-.002a.906.906 0 0 0 .847-.959c-.321-5.134-1.36-6.011-3.169-7.12zm-1.543 4.763h-.011l-.562-.769.562-3.756h.011l.562 3.756-.562.769z"/><path d="M2.107 13.256a1.654 1.654 0 1 0 3.307 0 1.654 1.654 0 0 0-3.307 0z"/><path d="M4.861 15.312a.736.736 0 0 0-.085-.041 1.933 1.933 0 0 0-.603-.266l-.411.415-.401-.42-.004.001c-.211.051-.42.141-.605.263-.033.014-.066.028-.097.047-1.144.701-1.854 1.275-2.156 3.968H1.79c.071-.603.164-1.058.278-1.41v1.41h3.386v-1.392c.112.349.202.799.272 1.392h1.29c-.301-2.693-1.011-3.266-2.155-3.968zm-1.096 3.382h-.007l-.399-.546.399-2.666h.007l.399 2.666-.399.546z"/><path d="M8.625 13.256a1.654 1.654 0 1 0 3.308 0 1.654 1.654 0 0 0-3.308 0z"/><path d="M11.379 15.312a.736.736 0 0 0-.085-.041 1.913 1.913 0 0 0-.603-.266l-.411.415-.4-.42-.004.001c-.212.051-.42.141-.605.263-.033.014-.066.028-.098.047-1.144.701-1.854 1.275-2.156 3.968h1.292c.071-.603.164-1.058.278-1.41v1.41h3.386v-1.392c.112.349.202.799.272 1.392h1.29c-.302-2.693-1.012-3.266-2.156-3.968zm-1.097 3.382h-.008l-.399-.546.399-2.666h.008l.399 2.666-.399.546z"/><path d="M6.995 11.142c3.072 0 5.571-2.499 5.571-5.571S10.067 0 6.995 0C3.923 0 1.424 2.499 1.424 5.571s2.499 5.571 5.571 5.571zm0-9.663c2.257 0 4.092 1.835 4.092 4.092S9.251 9.663 6.995 9.663c-2.256 0-4.092-1.835-4.092-4.092s1.836-4.092 4.092-4.092z"/><path d="M9.868 4.979H7.587V2.588H6.404v3.574h3.464z"/><path d="M12.04 26.981l-.61-.225a4.646 4.646 0 0 0-.051-1.35l.589-.272a.735.735 0 0 0 .36-.975l-.344-.747a.734.734 0 0 0-.974-.36l-.59.272a4.63 4.63 0 0 0-.992-.917l.225-.61a.736.736 0 0 0-.435-.944l-.772-.285a.755.755 0 0 0-.944.435l-.225.61a4.718 4.718 0 0 0-1.35.051l-.272-.59a.736.736 0 0 0-.975-.36l-.747.344a.736.736 0 0 0-.36.975l.272.589a4.684 4.684 0 0 0-.917.993l-.609-.225a.753.753 0 0 0-.945.434l-.284.772a.73.73 0 0 0 .435.943l.61.226c-.048.444-.032.899.051 1.35l-.59.272a.735.735 0 0 0-.36.974l.345.748a.735.735 0 0 0 .975.359l.59-.272c.288.357.623.664.993.917l-.225.61a.722.722 0 0 0 .022.562.728.728 0 0 0 .412.383l.772.285a.73.73 0 0 0 .943-.435l.226-.61a4.68 4.68 0 0 0 1.35-.051l.271.59a.736.736 0 0 0 .975.359l.747-.344a.734.734 0 0 0 .36-.975l-.272-.589a4.63 4.63 0 0 0 .916-.993l.61.226c.185.069.384.06.563-.022s.313-.229.381-.412l.285-.772a.733.733 0 0 0-.434-.943zm-4.042 1.92a2.89 2.89 0 0 1-1.215.267 2.916 2.916 0 0 1-2.641-1.691 2.91 2.91 0 0 1 2.638-4.122c1.131 0 2.168.663 2.641 1.69a2.911 2.911 0 0 1-1.423 3.856z"/><path d="M18.278 15.526V3.06h-3.777v.819h2.958v11.647h-2.958v1.008h2.958v12.701h-2.958v.819h3.777v-13.52h3.434l-.058-1.008z"/></g></svg>