<?xml version="1.0" encoding="utf-8"?>
<!-- Generator: Adobe Illustrator 23.0.1, SVG Export Plug-In . SVG Version: 6.00 Build 0)  -->
<svg version="1.1" id="icon-aside-fonans" xmlns="http://www.w3.org/2000/svg" xmlns:xlink="http://www.w3.org/1999/xlink" x="0px"
	 y="0px" viewBox="0 0 56 32" style="enable-background:new 0 0 56 32;" xml:space="preserve">
<g>
	<path d="M49.6,6.1l0,15.5c0,0.4-0.3,0.6-0.7,0.6s-0.7-0.3-0.7-0.6l0-14.9H15.4c-0.4,0-0.7-0.3-0.7-0.6c0-0.4,0.3-0.6,0.7-0.6h33.5
		C49.3,5.4,49.6,5.7,49.6,6.1L49.6,6.1L49.6,6.1z M46.9,8.6v15.6c0,0.4-0.3,0.6-0.7,0.6c-0.4,0-0.7-0.3-0.7-0.6V9.3H12.7
		C12.3,9.3,12,9,12,8.6C12,8.3,12.3,8,12.7,8h33.5C46.6,8,46.9,8.3,46.9,8.6z M44.2,11.2v15.6c0,0.4-0.3,0.6-0.7,0.6
		c-0.4,0-0.7-0.3-0.7-0.6V11.9H10c-0.4,0-0.7-0.3-0.7-0.6s0.3-0.6,0.7-0.6h33.5C43.9,10.6,44.2,10.8,44.2,11.2z M41.5,13.8v15.6
		c0,0.4-0.3,0.6-0.7,0.6H7.3c-0.4,0-0.7-0.3-0.7-0.6V13.8c0-0.4,0.3-0.6,0.7-0.6h33.5C41.2,13.1,41.5,13.4,41.5,13.8L41.5,13.8z
		 M8,28.7h3.4c-0.1-0.8-0.5-1.6-1.1-2.2l0,0c-0.6-0.6-1.4-1-2.3-1.1C8,25.4,8,28.7,8,28.7z M8,14.4v3.3c0.9-0.1,1.7-0.5,2.3-1.1l0,0
		c0.6-0.6,1-1.4,1.1-2.2C11.4,14.4,8,14.4,8,14.4z M40.2,14.4h-3.4c0.1,0.8,0.5,1.6,1.1,2.2c0.6,0.6,1.4,1,2.3,1.1V14.4z M40.2,19.1
		c-1.2-0.1-2.3-0.7-3.2-1.5l0,0c-0.9-0.8-1.4-1.9-1.5-3.1H12.8c-0.1,1.2-0.7,2.3-1.5,3.1l0,0c-0.9,0.8-2,1.4-3.2,1.5v5
		c1.2,0.1,2.3,0.7,3.2,1.5l0,0c0.9,0.8,1.4,1.9,1.5,3.1h22.7c0.1-1.2,0.7-2.3,1.5-3.1l0,0c0.9-0.8,2-1.4,3.2-1.5V19.1L40.2,19.1z
		 M40.2,25.4c-0.9,0.1-1.7,0.5-2.3,1.1l0,0c-0.6,0.6-1,1.4-1.1,2.2h3.4C40.2,28.7,40.2,25.4,40.2,25.4z M36.9,23
		c-0.4,0.3-0.9,0.5-1.4,0.5c-0.6,0-1.1-0.2-1.4-0.6l0,0l0,0c-0.4-0.4-0.6-0.9-0.6-1.4c0-0.5,0.2-1,0.6-1.4l0,0l0,0l0,0
		c0.4-0.4,0.9-0.5,1.4-0.5c0.6,0,1.1,0.2,1.4,0.6l0,0l0,0c0.4,0.4,0.6,0.8,0.6,1.3C37.5,22.1,37.3,22.6,36.9,23
		C36.9,22.9,36.9,23,36.9,23z M36,21.1L36,21.1c-0.1-0.1-0.3-0.2-0.5-0.2S35.1,21,35,21.1l0,0c-0.3,0.2-0.3,0.7,0,0.9c0,0,0,0,0,0
		l0,0c0.1,0.1,0.3,0.2,0.5,0.2c0.2,0,0.3-0.1,0.4-0.2l0,0C36.2,21.8,36.2,21.4,36,21.1C36,21.1,36,21.1,36,21.1z M29.4,25.3
		c-0.6,0.8-1.4,1.5-2.3,1.9c-0.9,0.5-1.9,0.7-3,0.7c-1,0-2.1-0.2-3-0.7c-0.9-0.5-1.7-1.1-2.3-1.9c-0.1-0.2-0.2-0.4-0.1-0.6
		c0.2-0.4,0.4-0.9,0.6-1.2l0,0c0.3-0.4,0.6-0.8,1-1.1c0.3-0.2,0.6-0.2,0.9,0c0.4,0.3,0.9,0.6,1.3,0.8c0.5,0.2,1,0.3,1.5,0.3
		s1.1-0.1,1.5-0.3c0.5-0.2,0.9-0.4,1.3-0.8c0.3-0.2,0.6-0.2,0.9,0c0.4,0.3,0.7,0.7,1,1.1l0,0l0,0c0.3,0.4,0.5,0.8,0.7,1.3l0,0
		C29.6,24.9,29.5,25.1,29.4,25.3L29.4,25.3z M27.7,24.1L27.7,24.1c-0.1-0.2-0.2-0.3-0.4-0.5c-0.4,0.3-0.8,0.5-1.3,0.6
		c-1.3,0.5-2.7,0.5-4,0c-0.4-0.2-0.9-0.4-1.3-0.6c-0.1,0.1-0.2,0.3-0.4,0.5l0,0c-0.1,0.2-0.2,0.4-0.3,0.6c0.5,0.5,1,1,1.6,1.3
		c0.7,0.4,1.5,0.6,2.4,0.5c0.8,0,1.6-0.2,2.4-0.5c0.6-0.3,1.2-0.7,1.6-1.3C28,24.5,27.9,24.3,27.7,24.1L27.7,24.1z M26.3,21.3
		c-0.6,0.6-1.4,0.9-2.2,0.9c-0.8,0-1.6-0.3-2.3-0.9l0,0c-0.6-0.6-0.9-1.4-0.9-2.2c0-0.8,0.3-1.6,0.9-2.1l0,0
		c0.6-0.6,1.4-0.9,2.3-0.9c0.9,0,1.6,0.3,2.2,0.9l0,0c0.6,0.6,0.9,1.4,0.9,2.2C27.3,20,26.9,20.8,26.3,21.3L26.3,21.3L26.3,21.3z
		 M25.4,17.9L25.4,17.9c-0.4-0.3-0.8-0.5-1.3-0.5c-0.5,0-1,0.2-1.3,0.5l0,0c-0.7,0.7-0.7,1.8,0,2.5c0,0,0,0,0,0l0,0l0,0
		c0.4,0.3,0.8,0.5,1.3,0.5c0.5,0,1-0.2,1.3-0.5l0,0c0.3-0.3,0.5-0.8,0.5-1.3C25.9,18.7,25.7,18.2,25.4,17.9z M14.1,23
		c-0.4,0.3-0.9,0.5-1.4,0.5c-0.5,0-1-0.2-1.4-0.6c-0.4-0.4-0.6-0.9-0.6-1.4c0-0.5,0.2-1,0.6-1.4c0.4-0.4,0.9-0.6,1.4-0.6
		c0.5,0,1,0.2,1.4,0.6l0,0l0,0c0.3,0.4,0.6,0.8,0.6,1.3C14.7,22.1,14.5,22.6,14.1,23C14.1,22.9,14.1,23,14.1,23z M13.2,21.1
		L13.2,21.1c-0.1-0.1-0.3-0.2-0.5-0.2c-0.2,0-0.3,0.1-0.5,0.2c-0.3,0.2-0.3,0.6,0,0.9c0,0,0,0,0,0c0.3,0.2,0.7,0.3,0.9,0l0,0
		C13.4,21.8,13.4,21.4,13.2,21.1C13.2,21.1,13.2,21.1,13.2,21.1z"/>
</g>
</svg>
