<svg id="icon-aside-intagration" viewBox="0 0 37 32" xmlns="http://www.w3.org/2000/svg"><g class="nc-icon-wrapper"><path d="M34.305 18.889a2.855 2.855 0 0 1-2.722-2.027h-9.092c.053-.273.083-.547.083-.828 0-.471-.083-.926-.235-1.344h9.456a2.844 2.844 0 0 1 2.51-1.503 2.848 2.848 0 0 1 2.851 2.847 2.855 2.855 0 0 1-2.851 2.855zm0-3.903c-.584 0-1.054.471-1.054 1.055s.47 1.055 1.054 1.055c.584 0 1.062-.478 1.054-1.055 0-.585-.47-1.055-1.054-1.055zm-2.684-1.905l-4.557-7.455a2.994 2.994 0 0 1-.66.083 2.854 2.854 0 0 1 0-5.71 2.854 2.854 0 0 1 2.851 2.855c0 .554-.159 1.063-.432 1.503l4.739 7.751a3.995 3.995 0 0 0-1.941.972zm-5.21-11.282c-.584 0-1.054.471-1.054 1.055s.47 1.055 1.054 1.055c.584 0 1.054-.471 1.054-1.055s-.47-1.055-1.054-1.055zM25.13 6.651l-4.527 7.402a2.849 2.849 0 0 1 0 3.978l4.527 7.402a3.97 3.97 0 0 0-1.79 1.222l-4.747-7.766h-.015a2.844 2.844 0 0 1-2.51-1.503H6.605c.152-.418.235-.873.235-1.344 0-.288-.03-.562-.083-.828h9.1a2.842 2.842 0 0 1 2.722-2.027h.023l4.747-7.766c.47.554 1.084.987 1.782 1.23zm-6.552 8.328c-.584 0-1.054.471-1.054 1.055s.47 1.055 1.054 1.055c.584 0 1.062-.471 1.054-1.055 0-.585-.47-1.055-1.054-1.055zm3.921-11.297l-9.092-.008a3.085 3.085 0 0 1-.311.683l4.739 7.751a3.995 3.995 0 0 0-1.941.972l-4.557-7.455a2.846 2.846 0 1 1-.652-5.618c1.084 0 2.032.607 2.51 1.503h9.456a3.935 3.935 0 0 0-.235 1.344c0 .288.03.562.083.828zm-11.815-1.89c-.584 0-1.062.478-1.054 1.055 0 .585.47 1.055 1.054 1.055s1.054-.471 1.054-1.055c0-.585-.47-1.055-1.054-1.055zM9.403 6.635l-4.527 7.402a2.855 2.855 0 0 1 0 3.986l4.527 7.402a3.97 3.97 0 0 0-1.79 1.222L2.866 18.88h-.015C1.274 18.88 0 17.605 0 16.033s1.274-2.855 2.844-2.847h.023l4.747-7.774c.47.554 1.084.987 1.79 1.222zm-6.552 8.336c-.591 0-1.062.478-1.054 1.055 0 .585.47 1.055 1.054 1.055s1.054-.471 1.054-1.055c0-.585-.47-1.055-1.054-1.055zm7.833 11.289c.25 0 .485.03.713.091l4.497-7.357a3.935 3.935 0 0 0 1.941.972l-4.701 7.691c.114.197.205.41.273.63h9.1a4.322 4.322 0 0 0-.083.828c0 .471.083.926.235 1.344h-9.41a2.848 2.848 0 0 1-5.414-1.238v-.053-.053a2.855 2.855 0 0 1 2.851-2.855zm0 3.903c.569 0 1.024-.44 1.054-1.002-.03-.554-.485-1.002-1.054-1.002s-1.024.44-1.054 1.002c.03.554.485 1.002 1.054 1.002zm15.727-3.796c.227 0 .44.023.652.076l4.565-7.448a3.935 3.935 0 0 0 1.941.972l-4.739 7.751c.273.44.432.949.432 1.503a2.855 2.855 0 0 1-2.851 2.855 2.854 2.854 0 0 1 0-5.71zm0 3.909c.584 0 1.062-.478 1.054-1.055 0-.585-.47-1.055-1.054-1.055s-1.054.471-1.054 1.055c0 .585.47 1.055 1.054 1.055z"/></g></svg>