<svg id="icon-aside-manage" viewBox="0 0 25 32" xmlns="http://www.w3.org/2000/svg"><g class="nc-icon-wrapper"><path d="M0 32V0h17.287l7.779 7.779V32H-.001zM17.6 1.821v5.646h5.646L17.6 1.821zM24 8.533h-7.467V1.066H1.066v29.867h22.933v-22.4zM5.867 7.467H11.2a.533.533 0 1 1 0 1.066H5.867a.533.533 0 1 1 0-1.066zm0 4.266H19.2a.533.533 0 1 1 0 1.066H5.867a.533.533 0 1 1 0-1.066zm0 4.267H19.2a.533.533 0 1 1 0 1.066H5.867a.533.533 0 1 1 0-1.066zm0 4.267H19.2a.533.533 0 1 1 0 1.066H5.867a.533.533 0 1 1 0-1.066zm0 4.266H19.2a.533.533 0 1 1 0 1.066H5.867a.533.533 0 1 1 0-1.066z"/></g></svg>